<svg viewBox="0 0 54 53" xmlns="http://www.w3.org/2000/svg" style="display: block">
  <path
    d="M27.25 13.0234C19.75 13.0234 13.7734 19.1172 13.7734 26.5C13.7734 34 19.75 39.9766 27.25 39.9766C34.6328 39.9766 40.7266 34 40.7266 26.5C40.7266 19.1172 34.6328 13.0234 27.25 13.0234ZM27.25 35.2891C22.4453 35.2891 18.4609 31.4219 18.4609 26.5C18.4609 21.6953 22.3281 17.8281 27.25 17.8281C32.0547 17.8281 35.9219 21.6953 35.9219 26.5C35.9219 31.4219 32.0547 35.2891 27.25 35.2891ZM44.3594 12.5547C44.3594 10.7969 42.9531 9.39062 41.1953 9.39062C39.4375 9.39062 38.0312 10.7969 38.0312 12.5547C38.0312 14.3125 39.4375 15.7188 41.1953 15.7188C42.9531 15.7188 44.3594 14.3125 44.3594 12.5547ZM53.2656 15.7188C53.0312 11.5 52.0938 7.75 49.0469 4.70312C46 1.65625 42.25 0.71875 38.0312 0.484375C33.6953 0.25 20.6875 0.25 16.3516 0.484375C12.1328 0.71875 8.5 1.65625 5.33594 4.70312C2.28906 7.75 1.35156 11.5 1.11719 15.7188C0.882812 20.0547 0.882812 33.0625 1.11719 37.3984C1.35156 41.6172 2.28906 45.25 5.33594 48.4141C8.5 51.4609 12.1328 52.3984 16.3516 52.6328C20.6875 52.8672 33.6953 52.8672 38.0312 52.6328C42.25 52.3984 46 51.4609 49.0469 48.4141C52.0938 45.25 53.0312 41.6172 53.2656 37.3984C53.5 33.0625 53.5 20.0547 53.2656 15.7188ZM47.6406 41.9688C46.8203 44.3125 44.9453 46.0703 42.7188 47.0078C39.2031 48.4141 31 48.0625 27.25 48.0625C23.3828 48.0625 15.1797 48.4141 11.7812 47.0078C9.4375 46.0703 7.67969 44.3125 6.74219 41.9688C5.33594 38.5703 5.6875 30.3672 5.6875 26.5C5.6875 22.75 5.33594 14.5469 6.74219 11.0312C7.67969 8.80469 9.4375 7.04688 11.7812 6.10938C15.1797 4.70312 23.3828 5.05469 27.25 5.05469C31 5.05469 39.2031 4.70312 42.7188 6.10938C44.9453 6.92969 46.7031 8.80469 47.6406 11.0312C49.0469 14.5469 48.6953 22.75 48.6953 26.5C48.6953 30.3672 49.0469 38.5703 47.6406 41.9688Z"
    fill='current' />
</svg>
