<svg xmlns="http://www.w3.org/2000/svg" viewBox="0 0 20 26" fill="none">
    <g clip-path="url(#a)">
        <path stroke="#EE0043" d="M6.892 6.284v5.224l-.841-.563a5.591 5.591 0 0 1-2.492-4.661A5.601 5.601 0 0 1 9.167.676a5.601 5.601 0 0 1 5.608 5.608 5.591 5.591 0 0 1-2.492 4.66l-.842.564V6.284a2.276 2.276 0 0 0-4.55 0Zm10.766 8.934a2.228 2.228 0 0 1 1.34 2.046c0 .091-.007.156-.028.3l-.845 5.94c-.166 1.097-1.054 1.901-2.156 1.901H8.322c-.595 0-1.163-.24-1.576-.653L.803 18.809l.378-.383.892-.903a1.8 1.8 0 0 1 1.272-.53c.096 0 .16.008.275.028l.106.018 3.21.674V6.283c0-1.232.997-2.229 2.23-2.229 1.234 0 2.23.997 2.23 2.23V12.5h.316c.28 0 .552.057.849.18l5.097 2.538Z"/>
    </g>
    <defs>
        <clipPath id="a">
            <path fill="#fff" d="M0 0h20v26H0z"/>
        </clipPath>
    </defs>
</svg>
