<svg version="1.0" xmlns="http://www.w3.org/2000/svg"
 width="108pt" height="30.4pt" viewBox="0 0 1200 334">
<g transform="translate(0,334) scale(0.1,-0.1)"
fill="#fff" stroke="none">
<path d="M5829 3317 c-25 -7 -65 -25 -90 -39 -49 -29 -140 -117 -170 -165
l-19 -30 94 -57 c52 -31 98 -56 103 -56 4 1 23 21 40 45 93 125 260 129 292 7
25 -94 -16 -156 -296 -442 l-213 -218 0 -96 0 -96 400 0 400 0 0 115 0 115
-219 2 -219 3 152 162 c211 223 247 284 249 418 2 140 -65 246 -198 310 -52
26 -72 30 -160 32 -59 2 -119 -3 -146 -10z"/>
<path d="M1240 2745 l0 -575 210 0 210 0 0 575 0 575 -210 0 -210 0 0 -575z"/>
<path d="M3970 3130 c-452 -36 -761 -248 -846 -580 -23 -86 -22 -262 0 -354
56 -235 221 -394 527 -511 52 -20 198 -67 324 -105 127 -38 264 -83 305 -101
202 -86 291 -189 292 -337 1 -161 -109 -275 -309 -317 -90 -19 -290 -19 -392
0 -214 41 -471 164 -646 309 -27 23 -57 47 -67 54 -14 12 -26 -8 -113 -185
l-96 -198 48 -43 c123 -111 354 -239 541 -301 377 -125 827 -109 1125 40 214
107 354 276 408 490 18 70 21 103 17 209 -8 189 -55 311 -166 432 -135 146
-279 217 -712 352 -368 116 -494 186 -555 311 -35 71 -38 171 -7 230 93 180
403 228 775 120 104 -30 277 -102 357 -149 35 -20 66 -38 71 -39 5 -1 52 88
105 198 l95 199 -23 17 c-39 30 -169 96 -263 134 -101 40 -221 75 -340 99 -75
15 -296 37 -340 34 -11 0 -63 -4 -115 -8z"/>
<path d="M731 2954 c-371 -207 -603 -514 -693 -915 -30 -138 -33 -417 -5 -549
58 -277 179 -503 372 -695 207 -207 455 -336 760 -397 159 -32 434 -32 590 0
301 60 540 186 746 391 199 200 314 414 376 702 28 131 25 410 -6 549 -24 109
-69 237 -116 331 -118 233 -354 468 -597 594 -37 19 -60 26 -66 20 -12 -13
-172 -359 -172 -372 0 -5 34 -31 76 -58 195 -123 348 -338 406 -571 32 -128
31 -344 -1 -464 -65 -243 -206 -443 -405 -575 -396 -262 -916 -204 -1243 139
-124 129 -197 254 -245 422 -20 69 -23 100 -22 249 0 156 2 178 28 260 71 235
217 428 417 551 32 20 59 42 59 48 -1 26 -169 371 -181 374 -8 1 -43 -14 -78
-34z"/>
<path d="M6903 1765 c-40 -17 -73 -69 -73 -113 0 -99 95 -161 180 -117 43 22
60 53 60 111 0 60 -24 99 -76 120 -41 17 -50 17 -91 -1z"/>
<path d="M6310 1469 l0 -281 -46 51 c-154 171 -466 170 -638 -2 -96 -96 -140
-213 -140 -372 0 -301 190 -506 469 -505 132 1 222 35 303 117 l52 54 0 -81 0
-80 105 0 105 0 0 690 0 690 -105 0 -105 0 0 -281z m-177 -311 c60 -26 120
-93 148 -167 30 -80 24 -214 -13 -286 -55 -106 -144 -159 -268 -159 -124 0
-213 53 -268 159 -33 65 -42 186 -18 267 51 177 241 262 419 186z"/>
<path d="M9530 1060 l0 -690 105 0 105 0 0 690 0 690 -105 0 -105 0 0 -690z"/>
<path d="M7605 1364 c-107 -17 -190 -57 -240 -116 -46 -54 -57 -93 -53 -184 3
-72 7 -87 33 -126 45 -64 109 -101 266 -153 191 -64 239 -108 205 -188 -22
-54 -70 -71 -180 -64 -102 5 -178 30 -254 81 l-49 32 -38 -74 -39 -75 30 -24
c45 -37 142 -79 221 -97 186 -41 373 -1 462 101 70 79 84 204 34 303 -40 78
-111 123 -280 178 -143 47 -193 74 -207 113 -43 124 160 161 367 66 l54 -24
36 73 c21 41 37 78 37 83 0 13 -98 60 -161 77 -58 15 -195 25 -244 18z"/>
<path d="M8720 1356 c-81 -17 -144 -53 -200 -112 l-50 -53 0 85 0 84 -105 0
-105 0 0 -675 0 -675 105 0 105 0 0 260 c0 143 2 260 5 260 2 0 25 -22 51 -50
87 -93 223 -134 371 -112 254 39 405 243 390 527 -13 248 -145 414 -366 461
-79 16 -127 16 -201 0z m163 -186 c110 -41 177 -141 185 -276 8 -152 -45 -256
-159 -313 -138 -69 -301 -27 -380 98 -38 60 -51 109 -51 196 1 227 200 372
405 295z"/>
<path d="M10295 1356 c-73 -17 -153 -48 -212 -82 l-43 -26 32 -57 c17 -31 36
-63 41 -72 8 -13 19 -11 83 22 229 115 454 49 454 -132 l0 -39 -172 0 c-256 0
-346 -25 -431 -119 -97 -107 -82 -302 30 -401 137 -120 420 -114 551 13 l32
31 0 -62 0 -63 103 3 102 3 0 360 c0 426 -1 433 -94 526 -80 79 -140 101 -296
105 -78 2 -141 -1 -180 -10z m355 -606 c0 -67 -14 -101 -57 -142 -64 -61 -200
-93 -290 -69 -150 41 -164 227 -20 260 23 5 115 9 205 10 l162 1 0 -60z"/>
<path d="M6850 865 l0 -495 105 0 105 0 0 495 0 495 -105 0 -105 0 0 -495z"/>
<path d="M10994 1343 c4 -10 95 -229 204 -488 l199 -470 -24 -55 c-53 -121
-135 -158 -242 -110 -24 11 -45 20 -46 20 -6 0 -85 -147 -85 -158 0 -6 30 -26
67 -44 61 -30 77 -33 153 -33 126 0 207 41 273 137 24 34 115 253 263 623 124
314 228 576 231 583 4 10 -18 12 -102 10 l-108 -3 -92 -250 c-50 -137 -111
-303 -135 -368 -23 -65 -46 -115 -50 -110 -6 6 -204 503 -285 716 -6 15 -22
17 -117 17 -100 0 -109 -2 -104 -17z"/>
</g>
</svg>
